REM DIRINDEX 1\2,1\3,1\4,1\5\6,1\5\7,1\8
REM DIRNAME folder01,folder02,folder03,folder04,folder05,folder06,folder07,folder08
TITLE ""
FILE "043 Åy043ÅzUnit3 (0481 prestigious_0492 merger).mp3" MP3
  TRACK 01 AUDIO
    TITLE "0:"
    INDEX 01 00:00:00
  TRACK 02 AUDIO
    TITLE "2:cjc115_1672"
    INDEX 01 00:00:07
  TRACK 03 AUDIO
    TITLE "0:"
    INDEX 01 00:01:44
  TRACK 04 AUDIO
    TITLE "3:cjc115_1673"
    INDEX 01 00:01:54
  TRACK 05 AUDIO
    TITLE "0:"
    INDEX 01 00:03:72
  TRACK 06 AUDIO
    TITLE "4:cjc115_1674"
    INDEX 01 00:04:17
  TRACK 07 AUDIO
    TITLE "0:"
    INDEX 01 00:08:07
  TRACK 08 AUDIO
    TITLE "2:cjc115_1675"
    INDEX 01 00:09:16
  TRACK 09 AUDIO
    TITLE "0:"
    INDEX 01 00:10:25
  TRACK 10 AUDIO
    TITLE "3:cjc115_1676"
    INDEX 01 00:10:29
  TRACK 11 AUDIO
    TITLE "0:"
    INDEX 01 00:12:09
  TRACK 12 AUDIO
    TITLE "4:cjc115_1677"
    INDEX 01 00:12:20
  TRACK 13 AUDIO
    TITLE "0:"
    INDEX 01 00:15:19
  TRACK 14 AUDIO
    TITLE "2:cjc115_1678"
    INDEX 01 00:16:26
  TRACK 15 AUDIO
    TITLE "0:"
    INDEX 01 00:17:25
  TRACK 16 AUDIO
    TITLE "3:cjc115_1679"
    INDEX 01 00:17:29
  TRACK 17 AUDIO
    TITLE "0:"
    INDEX 01 00:21:27
  TRACK 18 AUDIO
    TITLE "4:cjc115_1680"
    INDEX 01 00:21:35
  TRACK 19 AUDIO
    TITLE "0:"
    INDEX 01 00:24:35
  TRACK 20 AUDIO
    TITLE "2:cjc115_1681"
    INDEX 01 00:25:45
  TRACK 21 AUDIO
    TITLE "0:"
    INDEX 01 00:26:60
  TRACK 22 AUDIO
    TITLE "3:cjc115_1682"
    INDEX 01 00:26:71
  TRACK 23 AUDIO
    TITLE "0:"
    INDEX 01 00:28:51
  TRACK 24 AUDIO
    TITLE "4:cjc115_1683"
    INDEX 01 00:28:60
  TRACK 25 AUDIO
    TITLE "0:"
    INDEX 01 00:31:49
  TRACK 26 AUDIO
    TITLE "2:cjc115_1684"
    INDEX 01 00:32:58
  TRACK 27 AUDIO
    TITLE "0:"
    INDEX 01 00:34:20
  TRACK 28 AUDIO
    TITLE "3:cjc115_1685"
    INDEX 01 00:34:28
  TRACK 29 AUDIO
    TITLE "0:"
    INDEX 01 00:37:40
  TRACK 30 AUDIO
    TITLE "4:cjc115_1686"
    INDEX 01 00:37:48
  TRACK 31 AUDIO
    TITLE "0:"
    INDEX 01 00:41:57
  TRACK 32 AUDIO
    TITLE "2:cjc115_1687"
    INDEX 01 00:42:61
  TRACK 33 AUDIO
    TITLE "0:"
    INDEX 01 00:44:05
  TRACK 34 AUDIO
    TITLE "3:cjc115_1688"
    INDEX 01 00:44:11
  TRACK 35 AUDIO
    TITLE "0:"
    INDEX 01 00:46:47
  TRACK 36 AUDIO
    TITLE "4:cjc115_1689"
    INDEX 01 00:46:54
  TRACK 37 AUDIO
    TITLE "0:"
    INDEX 01 00:51:09
  TRACK 38 AUDIO
    TITLE "2:cjc115_1690"
    INDEX 01 00:52:20
  TRACK 39 AUDIO
    TITLE "0:"
    INDEX 01 00:53:37
  TRACK 40 AUDIO
    TITLE "3:cjc115_1691"
    INDEX 01 00:53:43
  TRACK 41 AUDIO
    TITLE "0:"
    INDEX 01 00:54:44
  TRACK 42 AUDIO
    TITLE "4:cjc115_1692"
    INDEX 01 00:54:56
  TRACK 43 AUDIO
    TITLE "0:"
    INDEX 01 00:57:64
  TRACK 44 AUDIO
    TITLE "2:cjc115_1693"
    INDEX 01 00:58:73
  TRACK 45 AUDIO
    TITLE "0:"
    INDEX 01 01:00:06
  TRACK 46 AUDIO
    TITLE "3:cjc115_1694"
    INDEX 01 01:00:15
  TRACK 47 AUDIO
    TITLE "0:"
    INDEX 01 01:02:28
  TRACK 48 AUDIO
    TITLE "4:cjc115_1695"
    INDEX 01 01:02:38
  TRACK 49 AUDIO
    TITLE "0:"
    INDEX 01 01:05:58
  TRACK 50 AUDIO
    TITLE "2:cjc115_1696"
    INDEX 01 01:06:61
  TRACK 51 AUDIO
    TITLE "0:"
    INDEX 01 01:07:72
  TRACK 52 AUDIO
    TITLE "3:cjc115_1697"
    INDEX 01 01:08:05
  TRACK 53 AUDIO
    TITLE "0:"
    INDEX 01 01:09:22
  TRACK 54 AUDIO
    TITLE "4:cjc115_1698"
    INDEX 01 01:09:30
  TRACK 55 AUDIO
    TITLE "0:"
    INDEX 01 01:13:38
  TRACK 56 AUDIO
    TITLE "2:cjc115_1699"
    INDEX 01 01:14:45
  TRACK 57 AUDIO
    TITLE "0:"
    INDEX 01 01:15:62
  TRACK 58 AUDIO
    TITLE "3:cjc115_1700"
    INDEX 01 01:16:01
  TRACK 59 AUDIO
    TITLE "0:"
    INDEX 01 01:18:25
  TRACK 60 AUDIO
    TITLE "4:cjc115_1701"
    INDEX 01 01:18:33
  TRACK 61 AUDIO
    TITLE "0:"
    INDEX 01 01:22:33
  TRACK 62 AUDIO
    TITLE "2:cjc115_1702"
    INDEX 01 01:23:40
  TRACK 63 AUDIO
    TITLE "0:"
    INDEX 01 01:24:51
  TRACK 64 AUDIO
    TITLE "3:cjc115_1703"
    INDEX 01 01:24:61
  TRACK 65 AUDIO
    TITLE "0:"
    INDEX 01 01:26:62
  TRACK 66 AUDIO
    TITLE "4:cjc115_1704"
    INDEX 01 01:26:70
  TRACK 67 AUDIO
    TITLE "0:"
    INDEX 01 01:31:16
  TRACK 68 AUDIO
    TITLE "2:cjc115_1705"
    INDEX 01 01:32:23
  TRACK 69 AUDIO
    TITLE "0:"
    INDEX 01 01:33:33
  TRACK 70 AUDIO
    TITLE "3:cjc115_1706"
    INDEX 01 01:33:40
  TRACK 71 AUDIO
    TITLE "0:"
    INDEX 01 01:34:55
  TRACK 72 AUDIO
    TITLE "4:cjc115_1707"
    INDEX 01 01:34:63
  TRACK 73 AUDIO
    TITLE "0:"
    INDEX 01 01:38:06
